<svg width="33" height="32" viewBox="0 0 33 32" fill="none" xmlns="http://www.w3.org/2000/svg">
<path d="M3.47368 32C2.51842 32 1.70066 31.6519 1.02039 30.9556C0.340132 30.2593 0 29.4222 0 28.4444V3.55556C0 2.57778 0.340132 1.74074 1.02039 1.04444C1.70066 0.348148 2.51842 0 3.47368 0H27.7895C28.7447 0 29.5625 0.348148 30.2428 1.04444C30.923 1.74074 31.2632 2.57778 31.2632 3.55556H17.3684C15.3132 3.55556 13.6414 4.21481 12.3533 5.53333C11.0651 6.85185 10.4211 8.56296 10.4211 10.6667V21.3333C10.4211 23.437 11.0651 25.1481 12.3533 26.4667C13.6414 27.7852 15.3132 28.4444 17.3684 28.4444H31.2632C31.2632 29.4222 30.923 30.2593 30.2428 30.9556C29.5625 31.6519 28.7447 32 27.7895 32H3.47368ZM17.3684 24.8889C16.4132 24.8889 15.5954 24.5407 14.9151 23.8444C14.2349 23.1481 13.8947 22.3111 13.8947 21.3333V10.6667C13.8947 9.68889 14.2349 8.85185 14.9151 8.15556C15.5954 7.45926 16.4132 7.11111 17.3684 7.11111H29.5263C30.4816 7.11111 31.2993 7.45926 31.9796 8.15556C32.6599 8.85185 33 9.68889 33 10.6667V21.3333C33 22.3111 32.6599 23.1481 31.9796 23.8444C31.2993 24.5407 30.4816 24.8889 29.5263 24.8889H17.3684ZM22.5789 18.6667C23.3316 18.6667 23.9539 18.4148 24.4461 17.9111C24.9382 17.4074 25.1842 16.7704 25.1842 16C25.1842 15.2296 24.9382 14.5926 24.4461 14.0889C23.9539 13.5852 23.3316 13.3333 22.5789 13.3333C21.8263 13.3333 21.2039 13.5852 20.7118 14.0889C20.2197 14.5926 19.9737 15.2296 19.9737 16C19.9737 16.7704 20.2197 17.4074 20.7118 17.9111C21.2039 18.4148 21.8263 18.6667 22.5789 18.6667Z" fill="#00224D"/>
</svg>
