<svg width="30" height="46" viewBox="0 0 30 46" fill="none" xmlns="http://www.w3.org/2000/svg">
<path d="M9.05723 16.9666C8.47069 16.9666 7.97902 16.7688 7.58224 16.3733C7.18547 15.9777 6.98708 15.4875 6.98708 14.9027C6.98708 14.318 7.18547 13.8278 7.58224 13.4322C7.97902 13.0366 8.47069 12.8389 9.05723 12.8389H21.4782C22.0647 12.8389 22.5564 13.0366 22.9531 13.4322C23.3499 13.8278 23.5483 14.318 23.5483 14.9027C23.5483 15.4875 23.3499 15.9777 22.9531 16.3733C22.5564 16.7688 22.0647 16.9666 21.4782 16.9666H9.05723ZM4.91692 45.861C3.77834 45.861 2.80364 45.4568 1.99283 44.6484C1.18202 43.8401 0.776611 42.8683 0.776611 41.7332V4.58333C0.776611 3.44819 1.18202 2.47645 1.99283 1.6681C2.80364 0.859743 3.77834 0.455566 4.91692 0.455566H25.6185C26.7571 0.455566 27.7318 0.859743 28.5426 1.6681C29.3534 2.47645 29.7588 3.44819 29.7588 4.58333V41.7332C29.7588 42.8683 29.3534 43.8401 28.5426 44.6484C27.7318 45.4568 26.7571 45.861 25.6185 45.861H4.91692ZM4.91692 35.5415H25.6185V10.775H4.91692V35.5415Z" fill="#00224D"/>
</svg>
